<svg xmlns="http://www.w3.org/2000/svg" xmlns:xlink="http://www.w3.org/1999/xlink" xmlns:inkscape="http://www.inkscape.org/namespaces/inkscape" version="1.1" width="375" height="375" viewBox="0 0 375 375">
<defs>
<clipPath id="clip_1">
<path transform="matrix(.24,0,0,.24,0,0)" d="M0 0H1562.5V1562.5H0Z" clip-rule="evenodd"/>
</clipPath>
<clipPath id="clip_2">
<path transform="matrix(.24,0,0,.24,0,0)" d="M0 0H1562.5V1562.5H0Z" clip-rule="evenodd"/>
</clipPath>
<clipPath id="clip_3">
<path transform="matrix(.24,0,0,.24,0,0)" d="M0 0H1562.5V1562.5H0Z"/>
</clipPath>
<clipPath id="clip_4">
<path transform="matrix(.24,0,0,.24,0,0)" d="M0 0H1562.5V1562.5H0Z"/>
</clipPath>
<clipPath id="clip_5">
<path transform="matrix(.24,0,0,.24,0,0)" d="M197.29325 209.02069H1366.0432V1377.7708H197.29325Z"/>
</clipPath>
<clipPath id="clip_6">
<path transform="matrix(.24,0,0,.24,0,0)" d="M197.29325 209.02069H1365.1643V1376.8919H197.29325Z"/>
</clipPath>
<clipPath id="clip_7">
<path transform="matrix(.24,0,0,.24,0,0)" d="M781.22879 209.02069C458.7301 209.02069 197.29325 470.45756 197.29325 792.95626 197.29325 1115.4548 458.7301 1376.8919 781.22879 1376.8919 1103.7274 1376.8919 1365.1643 1115.4548 1365.1643 792.95626 1365.1643 470.45756 1103.7274 209.02069 781.22879 209.02069Z"/>
</clipPath>
<clipPath id="clip_8">
<path transform="matrix(.24,0,0,.24,0,0)" d="M0 0H1562.5V1562.5H0Z"/>
</clipPath>
<clipPath id="clip_9">
<path transform="matrix(.24,0,0,.24,0,0)" d="M0 0H1562.5V1562.5H0Z"/>
</clipPath>
<clipPath id="clip_10">
<path transform="matrix(.24,0,0,.24,0,0)" d="M-259.54295 877.81918 107.90402 510.3722 621.46926 1023.93746 254.02231 1391.3844-259.54295 877.81918Z"/>
</clipPath>
<clipPath id="clip_11">
<path transform="matrix(.24,0,0,.24,0,122.399997)" d="M0 0H622V882H0Z"/>
</clipPath>
<clipPath id="clip_12">
<path transform="matrix(.24,0,0,.24,0,0)" d="M0 0H1562.5V1562.5H0Z"/>
</clipPath>
<clipPath id="clip_13">
<path transform="matrix(.24,0,0,.24,0,0)" d="M0 0H1562.5V1562.5H0Z"/>
</clipPath>
<clipPath id="clip_14">
<path transform="matrix(.24,0,0,.24,0,0)" d="M1454.593 493.60694 1822.04 861.0539 1307.4446 1375.6494 939.99758 1008.2024 1454.593 493.60694Z"/>
</clipPath>
<clipPath id="clip_15">
<path transform="matrix(.24,0,0,.24,225.36,118.32)" d="M0 0H624V883H0Z"/>
</clipPath>
<clipPath id="clip_16">
<path transform="matrix(.24,0,0,.24,0,0)" d="M0 122.14296H1562.5V1159.6237H0Z" clip-rule="evenodd"/>
</clipPath>
<clipPath id="clip_17">
<path transform="matrix(.24,0,0,.24,0,29.279999)" d="M0 0H1563V1038H0Z" clip-rule="evenodd"/>
</clipPath>
<clipPath id="clip_18">
<path transform="matrix(.24,0,0,.24,0,0)" d="M0 0H1562.5V1562.5H0Z" clip-rule="evenodd"/>
</clipPath>
<clipPath id="clip_19">
<path transform="matrix(.24,0,0,.24,76.32,77.52)" d="M0 0H926V940H0Z" clip-rule="evenodd"/>
</clipPath>
<clipPath id="clip_20">
<path transform="matrix(.24,0,0,.24,76.32,77.52)" d="M1.0506592 240.19879H925.44937V938.1198H1.0506592Z" clip-rule="evenodd"/>
</clipPath>
<clipPath id="clip_21">
<path transform="matrix(.24,0,0,.24,76.32,77.52)" d="M297.3938 .8913574H630.17739V333.6749H297.3938Z" clip-rule="evenodd"/>
</clipPath>
<clipPath id="clip_22">
<path transform="matrix(.24,0,0,.24,30.48,35.28)" d="M0 0H1313V1110H0Z" clip-rule="evenodd"/>
</clipPath>
</defs>
<g>
<g clip-path="url(#clip_1)">
<path transform="matrix(.75,0,0,.75,0,0)" d="M0 0H500V500H0Z" fill="#ffffff"/>
</g>
<g clip-path="url(#clip_2)">
<path transform="matrix(.75,0,0,.75,0,0)" d="M0 0H500V500H0Z" fill="#1e1b1b"/>
</g>
<g clip-path="url(#clip_3)">
<g clip-path="url(#clip_4)">
<g clip-path="url(#clip_5)">
<g clip-path="url(#clip_6)">
<g clip-path="url(#clip_7)">
<path transform="matrix(.75,0,0,.75,47.350378,50.164968)" stroke-width="16" stroke-linecap="butt" stroke-miterlimit="4" stroke-linejoin="miter" fill="none" stroke="#926f34" d="M186.85938 0C83.65979 0 0 83.65979 0 186.85938 0 290.05897 83.65979 373.71876 186.85938 373.71876 290.05897 373.71876 373.71876 290.05897 373.71876 186.85938 373.71876 83.65979 290.05897 0 186.85938 0Z"/>
</g>
</g>
</g>
</g>
</g>
<g clip-path="url(#clip_8)">
<g clip-path="url(#clip_9)">
<g clip-path="url(#clip_10)">
<g>
<g clip-path="url(#clip_11)">
<path transform="matrix(.34448154,-.34448154,.34448154,.34448154,-62.290304,210.67659)" d="M0 0H256V358H0Z" fill="#1e1b1b"/>
</g>
</g>
</g>
</g>
</g>
<g clip-path="url(#clip_12)">
<g clip-path="url(#clip_13)">
<g clip-path="url(#clip_14)">
<g>
<g clip-path="url(#clip_15)">
<path transform="matrix(.34448154,.34448154,-.34448154,.34448154,349.10234,118.46566)" d="M0 0H256V359H0Z" fill="#1e1b1b"/>
</g>
</g>
</g>
</g>
</g>
<g clip-path="url(#clip_16)">
<g>
<g clip-path="url(#clip_17)">
<path transform="matrix(.97263815,0,0,.97263815,-34.355688,29.314309)" d="M0 0H449V256H0Z" fill="#1e1b1b"/>
</g>
</g>
</g>
<g clip-path="url(#clip_18)">
<g>
<g clip-path="url(#clip_19)">
<g clip-path="url(#clip_20)">
<path transform="matrix(.23226099,0,0,.23226099,-44.760988,-13.230087)" d="M1440.2891 795.35159 1428.7617 818.71878 1402.9609 822.46878 1421.6289 840.66018 1417.2188 866.35159 1440.2891 854.21878 1463.3594 866.35159 1458.9492 840.66018 1477.6094 822.46878 1451.8203 818.71878 1440.2891 795.35159ZM1345 638.98049 1338.2305 652.6914 1323.1016 654.8906 1334.0508 665.5586 1331.4609 680.6289 1345 673.5117 1358.5313 680.6289 1355.9492 665.5586 1366.8906 654.8906 1351.7617 652.6914 1345 638.98049ZM1406.9297 703.41018 1398.3281 720.8281 1379.1094 723.6211 1393.0195 737.1797 1389.7305 756.3203 1406.9297 747.28128 1424.1211 756.3203 1420.8399 737.1797 1434.7383 723.6211 1415.5195 720.8281 1406.9297 703.41018ZM548.1758 818.71878 522.3867 822.46878 541.0469 840.66018 536.6406 866.35159 559.71096 854.21878 582.77737 866.35159 578.3711 840.66018 597.03518 822.46878 571.2422 818.71878 559.71096 795.35159 548.1758 818.71878ZM648.2383 652.6914 633.10549 654.8906 644.0547 665.5586 641.46878 680.6289 655.0039 673.5117 668.53518 680.6289 665.9531 665.5586 676.90237 654.8906 661.76956 652.6914 655.0039 638.98049 648.2383 652.6914ZM584.47659 720.8281 565.2578 723.6211 579.16409 737.1797 575.8828 756.3203 593.0742 747.28128 610.2656 756.3203 606.98049 737.1797 620.8906 723.6211 601.66799 720.8281 593.0742 703.41018 584.47659 720.8281ZM790.96096 891.41018H871.2617V861.78909H790.96096V891.41018ZM1210.9219 891.41018V861.78909H1130.6094V891.41018H1210.9219ZM1255.6797 740.6719H746.1992V770.28909H1255.6797V740.6719ZM1210.9219 801.23049H790.96096V830.85159H1210.9219V801.23049ZM1019.03909 1273.7617V862.78128H989.41799V1273.7617H1019.03909ZM1456.3399 905.6211C1456.3399 1010.0781 1420.0703 1112.1484 1354.2188 1193.0117 1289.3008 1272.7188 1198.5586 1328.6602 1098.7188 1350.5 1088.3906 1352.75 1078.1289 1354.6211 1068.2188 1356.0586 1046.1016 1359.3516 1023.4492 1361.0195 1000.9414 1361.0195 978.4219 1361.0195 955.76956 1359.3516 933.6133 1356.0586 923.7461 1354.6211 913.4883 1352.75 903.16409 1350.5 803.3164 1328.6602 712.5781 1272.7188 647.65628 1193.0117 581.8008 1112.1484 545.53128 1010.0781 545.53128 905.6211H570.5547C570.5547 1105.4688 711.3906 1281.5703 905.8281 1325.4414V862.76956H935.4531V1331.0195C936.0508 1331.1094 936.66018 1331.2188 937.2539 1331.3008 979.21878 1337.5391 1022.6914 1337.5391 1064.5781 1331.3086 1065.1914 1331.2188 1065.8086 1331.1094 1066.4219 1331.0195V862.76956H1096.0508V1325.4414C1290.4805 1281.5781 1431.3203 1105.4805 1431.3203 905.6211H1456.3399" fill="#926f34"/>
</g>
<g clip-path="url(#clip_21)">
<path transform="matrix(.6525251,0,0,.6525251,147.72714,77.733928)" d="M108.821 116.586H93.534 28.358 13.072C11.186999 116.586 9.502999 117.851 8.976 119.661998L8.297 122H113.596L112.917 119.662C112.39 117.851 110.706 116.586 108.821 116.586Z" fill="#926f34"/>
<path transform="matrix(.6525251,0,0,.6525251,147.72714,77.733928)" d="M57.736 18.614H64.157V21.976H57.736Z" fill="#926f34"/>
<path transform="matrix(.6525251,0,0,.6525251,147.72714,77.733928)" d="M64.712 16.614C66.307 14.860001 67.258998 12.146 67.258998 9.241 67.259 4.146 64.427 0 60.946 0 57.464998 0 54.633 4.146 54.633 9.241 54.633 12.145 55.584 14.859 57.18 16.614H64.712Z" fill="#926f34"/>
<path transform="matrix(.6525251,0,0,.6525251,147.72714,77.733928)" d="M57.736 23.976H64.157V101.33H57.736Z" fill="#926f34"/>
<path transform="matrix(.6525251,0,0,.6525251,147.72714,77.733928)" d="M34.413 109.201C32.558 109.201 30.898999 110.445 30.379998 112.225L29.691998 114.586H92.201L91.51299 112.225C90.993999 110.444 89.33499 109.201 87.479999 109.201H77.401 44.491 34.413Z" fill="#926f34"/>
<path transform="matrix(.6525251,0,0,.6525251,147.72714,77.733928)" d="M56.736 103.33H45.491V107.201H76.401V103.33H65.157 56.736Z" fill="#926f34"/>
<path transform="matrix(.6525251,0,0,.6525251,147.72714,77.733928)" d="M42.652 74.772H37.779L27.156 33.185C28.032 33.34 28.909 33.43 29.771 33.43 33.833 33.43 36.961 32.219 39.987 31.047 42.391 30.116002 44.662 29.236 47.081 29.157002 50.644 29.038002 53.878004 30.617 55.735 31.757002V23.663002C54.252 23.160002 49.79 21.831002 45.798 22.514002 43.717 22.870003 41.701 23.952002 39.566 25.099003 36.587 26.698002 33.508005 28.351004 29.770003 28.351004 25.454003 28.351004 23.062003 26.843005 21.887003 25.744004 21.481003 26.202004 21.008004 26.606003 20.462004 26.919003 19.983004 27.193003 19.372004 27.027003 19.097004 26.548003 18.822005 26.069003 18.989005 25.458003 19.468005 25.183003 20.621005 24.522004 21.338006 23.287003 21.338006 21.961003 21.338006 19.915003 19.674006 18.251004 17.628006 18.251004 15.583006 18.251004 13.919006 19.915003 13.919006 21.961003 13.919006 23.926003 15.062006 25.991003 16.866007 27.820004L4.873 74.772H0C.783 82.052 10.049 87.817 21.326 87.817 32.603 87.817 41.87 82.052 42.652 74.772ZM35.703 74.772H22.326V31.614C23.173 32.015 24.047 32.357004 24.94 32.635004L35.703 74.772ZM20.326 30.542V74.772H6.949L18.562 29.311005C19.12 29.744 19.704 30.16 20.326 30.542Z" fill="#926f34"/>
<path transform="matrix(.6525251,0,0,.6525251,147.72714,77.733928)" d="M117.02 74.772 105.02599 27.821003C106.829998 25.992003 107.97299 23.928004 107.97299 21.962002 107.97299 19.916003 106.30899 18.252003 104.26399 18.252003 102.217998 18.252003 100.55399 19.916003 100.55399 21.962002 100.55399 23.289002 101.27 24.524003 102.423999 25.184002 102.90299 25.458003 103.06899 26.070002 102.795 26.549002 102.521 27.028002 101.909 27.194003 101.43 26.920002 100.884 26.607003 100.411 26.203003 100.005 25.745003 98.829998 26.844002 96.437 28.352004 92.121997 28.352004 88.383998 28.352004 85.30499 26.699004 82.326 25.100003 80.190998 23.954003 78.174999 22.871003 76.093997 22.515004 72.102 21.831004 67.64099 23.161004 66.157 23.664004V31.761004C68.014 30.624005 71.248 29.049004 74.811 29.157004 77.229999 29.237004 79.501 30.116003 81.905 31.047003 84.93 32.218004 88.059 33.430006 92.121 33.430006 92.984 33.430006 93.86 33.340005 94.736 33.185007L84.113 74.772H79.24C80.022998 82.052 89.289 87.817 100.565998 87.817 111.84299 87.817 121.10899 82.052 121.892 74.772H117.02ZM103.331 29.311 114.944 74.772H101.567V30.542004C102.188 30.16 102.773 29.744 103.331 29.311ZM99.566 31.614V74.772H86.189L96.952 32.636C97.845 32.357 98.72 32.015 99.566 31.614Z" fill="#926f34"/>
</g>
</g>
</g>
<g>
<g clip-path="url(#clip_22)">
<text fill="#926f34" xml:space="preserve" transform="matrix(-.7131761 -.84963437 .84963437 -.7131761 76.94997 298.17189)" font-size="23.11" font-family="Literata" font-weight="bold"><tspan y="22" x="0">C</tspan></text>
<text fill="#926f34" xml:space="preserve" transform="matrix(-.5509524 -.9627825 .9627825 -.5509524 59.51864 275.8979)" font-size="23.11" font-family="Literata" font-weight="bold"><tspan y="22" x="0">E</tspan></text>
<text fill="#926f34" xml:space="preserve" transform="matrix(-.36016975 -1.049179 1.049179 -.36016975 47.01175 252.59862)" font-size="23.11" font-family="Literata" font-weight="bold"><tspan y="22" x="0">N</tspan></text>
<text fill="#926f34" xml:space="preserve" transform="matrix(-.14742223 -1.0994387 1.0994387 -.14742223 37.87397 222.48598)" font-size="23.11" font-family="Literata" font-weight="bold"><tspan y="22" x="0">T</tspan></text>
<text fill="#926f34" xml:space="preserve" transform="matrix(.059476656 -1.1076828 1.1076828 .059476656 34.995397 193.94915)" font-size="23.11" font-family="Literata" font-weight="bold"><tspan y="22" x="0">R</tspan></text>
<text fill="#926f34" xml:space="preserve" transform="matrix(.26540888 -1.0770593 1.0770593 .26540888 37.439546 165.5947)" font-size="23.11" font-family="Literata" font-weight="bold"><tspan y="22" x="0">A</tspan></text>
<text fill="#926f34" xml:space="preserve" transform="matrix(.45350538 -1.0123396 1.0123396 .45350538 45.31567 137.85533)" font-size="23.11" font-family="Literata" font-weight="bold"><tspan y="22" x="0">L</tspan></text>
<text fill="#926f34" xml:space="preserve" transform="matrix(.63485166 -.90964946 .90964946 .63485166 56.65242 114.26533)" font-size="23.11" font-family="Literata" font-weight="bold"><tspan y="22" x="0">N</tspan></text>
<text fill="#926f34" xml:space="preserve" transform="matrix(.79451289 -.7741111 .7741111 .79451289 75.539989 89.26261)" font-size="23.11" font-family="Literata" font-weight="bold"><tspan y="22" x="0">E</tspan></text>
<text fill="#926f34" xml:space="preserve" transform="matrix(.90216568 -.64544239 .64544239 .90216568 94.66905 71.91106)" font-size="23.11" font-family="Literata" font-weight="bold"><tspan y="22" x="0">&#x2022;</tspan></text>
<text fill="#926f34" xml:space="preserve" transform="matrix(.99072477 -.498962 .498962 .99072477 111.59238 60.404108)" font-size="23.11" font-family="Literata" font-weight="bold"><tspan y="22" x="0">B</tspan></text>
<text fill="#926f34" xml:space="preserve" transform="matrix(1.0555985 -.3408964 .3408964 1.0555985 135.87436 49.26513)" font-size="23.11" font-family="Literata" font-weight="bold"><tspan y="22" x="0">I</tspan></text>
<text fill="#926f34" xml:space="preserve" transform="matrix(1.0972711 -.16277257 .16277257 1.0972711 155.56542 43.339174)" font-size="23.11" font-family="Literata" font-weight="bold"><tspan y="22" x="0">U</tspan></text>
<text fill="#926f34" xml:space="preserve" transform="matrix(1.1081375 .05029977 -.05029977 1.1081375 185.69762 39.93804)" font-size="23.11" font-family="Literata" font-weight="bold"><tspan y="22" x="0">R</tspan></text>
<text fill="#926f34" xml:space="preserve" transform="matrix(1.0800059 .25315208 -.25315208 1.0800059 213.27332 41.98487)" font-size="23.11" font-family="Literata" font-weight="bold"><tspan y="22" x="0">O</tspan></text>
<text fill="#926f34" xml:space="preserve" transform="matrix(1.0245098 .42529799 -.42529799 1.0245098 241.47924 49.763589)" font-size="23.11" font-family="Literata" font-weight="bold"><tspan y="22" x="0">&#x2022;</tspan></text>
<text fill="#926f34" xml:space="preserve" transform="matrix(.941612 .5864005 -.5864005 .941612 260.34788 58.06521)" font-size="23.11" font-family="Literata" font-weight="bold"><tspan y="22" x="0">D</tspan></text>
<text fill="#926f34" xml:space="preserve" transform="matrix(.8220904 .7447591 -.7447591 .8220904 283.926 73.75726)" font-size="23.11" font-family="Literata" font-weight="bold"><tspan y="22" x="0">Y</tspan></text>
<text fill="#926f34" xml:space="preserve" transform="matrix(.68916097 .8692272 -.8692272 .68916097 302.95127 92.09115)" font-size="23.11" font-family="Literata" font-weight="bold"><tspan y="22" x="0">S</tspan></text>
<text fill="#926f34" xml:space="preserve" transform="matrix(.5309441 .9739595 -.9739595 .5309441 317.6145 111.61254)" font-size="23.11" font-family="Literata" font-weight="bold"><tspan y="22" x="0">T</tspan></text>
<text fill="#926f34" xml:space="preserve" transform="matrix(.34068383 1.0556672 -1.0556672 .34068383 330.4989 137.23368)" font-size="23.11" font-family="Literata" font-weight="bold"><tspan y="22" x="0">R</tspan></text>
<text fill="#926f34" xml:space="preserve" transform="matrix(.15845935 1.0979022 -1.0979022 .15845935 337.87544 162.28772)" font-size="23.11" font-family="Literata" font-weight="bold"><tspan y="22" x="0">Y</tspan></text>
<text fill="#926f34" xml:space="preserve" transform="matrix(-.039967959 1.1085583 -1.1085583 -.039967959 340.9308 189.79813)" font-size="23.11" font-family="Literata" font-weight="bold"><tspan y="22" x="0">B</tspan></text>
<text fill="#926f34" xml:space="preserve" transform="matrix(-.24469064 1.0819543 -1.0819543 -.24469064 339.1914 216.72838)" font-size="23.11" font-family="Literata" font-weight="bold"><tspan y="22" x="0">U</tspan></text>
<text fill="#926f34" xml:space="preserve" transform="matrix(-.4471997 1.0151409 -1.0151409 -.4471997 331.47547 246.05214)" font-size="23.11" font-family="Literata" font-weight="bold"><tspan y="22" x="0">C</tspan></text>
<text fill="#926f34" xml:space="preserve" transform="matrix(-.6116761 .9253923 -.9253923 -.6116761 319.2171 271.36585)" font-size="23.11" font-family="Literata" font-weight="bold"><tspan y="22" x="0">J</tspan></text>
<text fill="#926f34" xml:space="preserve" transform="matrix(-.73621556 .8297502 -.8297502 -.73621556 305.85038 290.20387)" font-size="23.11" font-family="Literata" font-weight="bold"><tspan y="22" x="0">I</tspan></text>
</g>
</g>
</g>
<path transform="matrix(1,0,0,-1,0,383.03999)" d="M147.6945 225.69509H227.30548V305.30607H147.6945Z" fill-opacity="0"/>
<path transform="matrix(1,0,0,-1,0,383.03999)" d="M76.57216 80.14474H298.42787V247.87229H76.57216Z" fill-opacity="0"/>
</g>
</svg>
